<svg width="604" height="512" viewBox="0 0 604 512" fill="none" xmlns="http://www.w3.org/2000/svg">
<path d="M244.329 416.06L237.6 413.775C231.693 413.042 226.867 415.085 223.122 419.906C220.11 423.786 218.096 428.917 217.082 435.301C215.044 448.133 217.194 457.23 223.531 462.592C226.097 464.78 229.382 466.122 233.383 466.619L242.755 466.332C245.974 465.636 249.66 464.45 253.812 462.774L247.286 476.949L237.352 478.327L228.452 478.092C217.431 476.531 209.191 471.931 203.734 464.292C198.126 456.377 196.221 446.763 198.018 435.449C199.765 424.451 204.535 415.826 212.329 409.574C220.196 403.268 228.384 400.642 236.895 401.699C237.657 401.793 238.446 401.924 239.262 402.089L245.84 403.486L252.89 406.198L251.839 420.763L244.329 416.06Z" fill="white"/>
<path d="M291.159 417.355L287.343 467.514L292.496 469.385L297.817 470.306L304.529 469.392L311.644 465.714L306.67 481.746L265.859 479.114L266.048 476.626L267.38 474.307C268.022 472.617 268.496 469.761 268.802 465.741L272.573 416.156C272.913 411.689 272.883 408.705 272.484 407.205L271.495 405.024L271.684 402.536L295.922 404.099C294.405 405.476 293.294 407.007 292.588 408.693L291.159 417.355Z" fill="white"/>
<path d="M386.152 423.485L381.632 471.754C381.274 475.577 381.327 478.439 381.792 480.339L382.985 483.037L382.797 485.044L363.183 483.435L363.926 475.502C360.855 478.782 357.746 481.095 354.599 482.442C351.522 483.731 348.101 484.221 344.338 483.912C339.554 483.519 335.69 481.886 332.745 479.012C329.8 476.138 328.001 472.362 327.346 467.685C326.873 464.5 326.875 460.359 327.353 455.261L330.754 418.94C331.148 414.734 331.161 411.846 330.794 410.275C330.433 408.64 329.616 407.064 328.344 405.547L353.89 407.643C352.216 409.046 351.116 410.497 350.59 411.995C349.75 414.109 349.165 416.919 348.837 420.423L345.481 456.267C345.009 461.301 345.457 465.094 346.825 467.646C348.257 470.203 350.536 471.61 353.661 471.867C356.978 472.139 359.576 471.164 361.455 468.942C363.334 466.721 364.516 463.029 364.999 457.868L368.355 422.025L368.315 414.22C367.932 412.134 367.047 410.263 365.659 408.608L389.77 410.586L389.546 412.976L389.408 412.387L387.905 415.056C387.142 416.342 386.557 419.152 386.152 423.485Z" fill="white"/>
<path d="M434.436 433.452C434.615 430.899 434.121 428.779 432.956 427.094C431.795 425.344 430.257 424.403 428.342 424.269L427.288 424.195L425.524 424.649L424.319 441.887L427 442.075C428.916 442.209 430.597 441.556 432.045 440.118C433.447 438.42 434.244 436.198 434.436 433.452ZM428.468 412.826C436.449 413.384 442.5 415.379 446.623 418.811C450.75 422.179 452.61 426.768 452.204 432.578C451.972 435.898 450.905 438.774 449.002 441.207C447.1 443.641 444.456 445.669 441.071 447.293C449.858 450.987 453.897 457.91 453.187 468.061C453.022 470.423 452.611 472.64 451.953 474.711C449.647 481.992 445.245 486.688 438.746 488.8C435.792 489.748 431.826 490.048 426.846 489.7L399.936 487.818L400.203 483.988L400.711 484.985L401.809 483.041C402.441 481.353 402.897 478.498 403.178 474.476L406.647 424.869C406.951 420.528 406.898 417.605 406.49 416.101L405.159 413.121L405.293 411.205L428.468 412.826ZM423.549 452.9L421.814 477.704L424.086 478.248L425.714 478.361C428.715 478.571 431.155 477.619 433.035 475.505C435.065 473.081 436.201 470.145 436.442 466.697C436.692 463.122 436.135 460.068 434.773 457.535C433.191 454.473 430.708 452.824 427.324 452.587L424.711 452.789L423.549 452.9Z" fill="white"/>
<path d="M191.66 40.0203L188.374 36.4584L211.51 32.7941L239.961 92.1461L244.102 99.266L245.774 101.237L246.375 105.029L221.059 109.039L223.118 104.242L223.161 100.833L222.83 98.7472L217.135 86.7221L197.413 89.8457L195.738 103.816L195.819 105.553L197.163 109.13L200.199 112.343L181.045 115.377L183.573 109.242L192.418 49.7171L192.427 48.5492L192.754 43.2488L191.66 40.0203ZM198.94 78.6207L212.404 76.4882L201.963 54.1344L198.94 78.6207Z" fill="white"/>
<path d="M314.149 14.5316C313.288 17.0229 312.776 19.6477 312.613 22.406C312.501 25.0901 312.74 28.1024 313.329 31.4429L323.798 90.815C314.006 91.3067 305.074 86.9029 297 77.6036L296.283 76.8527L271.879 51.2292L277.38 82.4279C278.002 85.9574 278.855 88.7641 279.937 90.8478L284.057 95.9702L265.621 99.2209C267.205 96.4072 268.006 93.2115 268.025 89.6338C268.025 87.4242 267.642 84.1449 266.875 79.796L259.874 40.0886C258.785 33.9119 256.172 29.0436 252.035 25.4839L271.605 22.0332L308.581 62.0118L303.463 32.9875C302.841 29.458 301.923 26.4678 300.712 24.017L296.091 17.7156L314.149 14.5316Z" fill="white"/>
<path d="M375.709 19.227L369.934 18.9752L367.688 19.5253L366.012 19.9853L373.821 69.2907C374.422 73.0834 375.188 75.8779 376.121 77.6741L379.731 82.0593L353.846 86.1591C355.096 83.8228 355.82 82.0558 356.019 80.8579C356.285 79.2607 356.087 76.3761 355.426 72.2041L347.617 22.8987L344.238 23.045L337.971 25.2041L331.734 29.3993L332.824 11.7313L380.897 4.11737L380.187 21.7253L375.709 19.227Z" fill="white"/>
<path d="M422.157 14.2336L429.078 63.4777C429.612 67.2803 430.33 70.0877 431.231 71.9C431.879 73.2953 433.026 74.7823 434.669 76.3609L408.716 80.0083C409.861 78.0378 410.585 76.2881 410.887 74.7592C411.253 72.7688 411.17 69.8723 410.635 66.0696L403.714 16.8256C402.815 10.4245 400.919 6.13454 398.028 3.95574L423.981 0.308294C422.9 1.81735 422.177 3.56708 421.81 5.55747C421.507 7.53894 421.623 10.431 422.157 14.2336Z" fill="white"/>
<path d="M31.279 166.443C30.7722 167.978 30.526 170.857 30.5404 175.081L30.739 233.449C30.7688 242.216 28.8708 248.674 25.045 252.822C21.0921 257.225 14.5112 260.468 5.30243 262.551C7.84543 257.567 9.59094 253.317 10.539 249.8C11.6766 245.579 12.2369 240.973 12.2199 235.981L12.0125 175.022C11.9998 171.31 11.67 168.429 11.0231 166.379C10.3761 164.329 9.44255 162.694 8.22242 161.474L34.3343 161.557C32.804 163.216 31.7855 164.845 31.279 166.443Z" fill="white"/>
<path d="M69.2834 167.85L66.5817 163.81L90.0055 163.885L109.036 227.016L112.038 234.706L113.39 236.918L113.403 240.758L87.7709 240.676L90.5399 236.269L91.1044 232.911L91.0972 230.799L87.3098 218.019L67.3419 217.955L63.548 231.479L63.3619 233.206L64.1426 236.953L66.651 240.609L47.2591 240.547L50.6958 234.894L68.5484 177.544L68.7364 176.393L69.8708 171.212L69.2834 167.85ZM70.569 207.118L84.2009 207.161L77.3042 183.428L70.569 207.118Z" fill="white"/>
<path d="M161.61 160.744L178.506 160.798L156.112 237.525C149.641 235.521 144.896 232.818 141.876 229.416C139.242 226.4 136.857 221.4 134.722 214.417L120.063 166.563L117.259 160.602L138.379 160.67L140.62 170.469L153.251 214.861L165.288 169.492L164.41 165.361L161.61 160.744Z" fill="white"/>
<path d="M194.322 156.499L191.115 152.802L214.393 150.191L241.474 210.606L245.452 217.886L247.081 219.925L247.591 223.731L222.119 226.588L224.298 221.901L224.424 218.507L224.144 216.413L218.726 204.176L198.883 206.402L196.865 220.246L196.904 221.98L198.165 225.605L201.13 228.942L181.859 231.104L184.541 225.105L194.847 166.194L194.885 165.031L195.341 159.765L194.322 156.499ZM200.685 195.286L214.232 193.767L204.307 171.025L200.685 195.286Z" fill="white"/>
<path d="M279.375 152.196L273.599 151.304C271.303 151.486 269.332 152.38 267.687 153.986C266.106 155.587 265.506 157.368 265.888 159.327C266.165 162.194 270.152 165.538 277.849 169.359L285.242 173.012C288.884 174.778 291.796 177.308 293.978 180.602C296.16 183.896 297.464 187.74 297.888 192.136C298.583 199.335 296.744 205.257 292.371 209.903C288.234 214.338 282.498 216.845 275.16 217.425L265.976 217.187L255.651 215.114L250.884 199.7C254.703 201.966 258.597 203.681 262.567 204.843C266.269 205.899 269.364 206.328 271.852 206.132C274.532 205.92 276.758 205.006 278.531 203.39C280.367 201.768 281.162 199.684 280.916 197.135C280.572 193.568 276.7 190.087 269.301 186.691L264.066 184.409C259.691 182.38 256.069 179.488 253.2 175.735C250.483 172.227 248.915 168.307 248.497 163.975C247.851 157.286 249.606 151.82 253.76 147.576C257.685 143.607 263.028 141.356 269.791 140.821L277.712 140.966L286.201 142.991L287.382 155.222L279.375 152.196Z" fill="white"/>
<path d="M346.198 143.084L339.275 141.28C333.331 140.968 328.752 143.356 325.537 148.442C322.952 152.537 321.489 157.811 321.151 164.266C320.471 177.241 323.559 186.183 330.416 191.092C333.195 193.096 336.598 194.204 340.624 194.415L349.903 193.459C353.027 192.534 356.564 191.085 360.513 189.113L355.516 203.751L345.793 205.837L336.928 206.238C325.817 205.463 317.152 201.452 310.93 194.205C304.531 186.691 301.631 177.215 302.23 165.774C302.813 154.654 306.647 145.69 313.733 138.883C320.887 132.016 328.745 128.807 337.31 129.256C338.077 129.296 338.874 129.37 339.701 129.478L346.382 130.405L353.668 132.613L354.151 147.25L346.198 143.084Z" fill="white"/>
<path d="M405.924 153.851C406.112 150.272 405.425 147.48 403.864 145.476C402.306 143.407 400.185 142.303 397.501 142.162L396.542 142.112L395.957 142.274L394.6 168.158C398.034 167.441 400.782 165.758 402.844 163.111C404.7 160.708 405.727 157.622 405.924 153.851ZM399.829 130.748C408.266 131.191 414.536 133.218 418.641 136.829C422.749 140.377 424.62 145.634 424.255 152.601C424.037 156.755 422.866 160.154 420.74 162.799C418.995 165.527 415.915 168.057 411.499 170.39L425.376 200.918L430.211 207.708L416.422 208.523C413.098 208.349 410.277 207.144 407.959 204.908C405.459 202.469 403.343 198.834 401.609 194L394.284 174.198L393.279 193.371C393.061 197.526 393.169 200.351 393.604 201.848L396.415 206.898L370.243 205.527C371.857 204.073 372.997 202.499 373.663 200.803C374.251 199.36 374.654 196.561 374.872 192.407L377.465 142.939C377.649 139.424 377.647 137.02 377.458 135.728C377.077 133.209 376.002 131.102 374.232 129.407L399.829 130.748Z" fill="white"/>
<path d="M473.05 154.714L460.433 202.815C459.459 206.529 459.04 209.389 459.175 211.393C459.238 212.921 459.727 214.713 460.642 216.772L435.141 210.724C436.966 209.315 438.314 207.958 439.186 206.652C440.296 204.943 441.338 202.231 442.312 198.517L454.928 150.416C456.568 144.163 456.468 139.504 454.626 136.437L480.127 142.485C478.54 143.489 477.192 144.846 476.082 146.556C475.035 148.28 474.024 150.999 473.05 154.714Z" fill="white"/>
<path d="M534.904 159.573C537.873 163.896 538.661 169.181 537.267 175.428C535.762 182.174 532.543 187.202 527.609 190.511C522.57 193.994 516.674 194.856 509.921 193.095L506.105 192.126C509.206 190.861 511.956 188.97 514.353 186.453C516.43 183.609 517.893 180.282 518.743 176.472C519.677 172.287 519.523 168.861 518.282 166.193C517.055 163.464 514.843 161.775 511.644 161.126L500.398 211.535L499.458 220.159L501.121 225.49L475.435 220.284C477.205 218.815 478.501 217.413 479.324 216.078C480.453 214.544 481.456 211.809 482.334 207.874L493.161 159.339C494.067 155.279 494.363 152.335 494.049 150.509C493.812 148.633 493.181 146.905 492.156 145.327L521.041 151.181C527.314 152.453 531.934 155.25 534.904 159.573Z" fill="white"/>
<path d="M586.033 180.298L580.814 177.876L578.523 177.53L576.793 177.317L564.128 225.604C563.154 229.318 562.735 232.178 562.87 234.183L564.43 239.583L538.93 233.535C541.022 231.862 542.402 230.512 543.068 229.486C543.955 228.119 544.935 225.392 546.007 221.306L558.672 173.02L555.5 171.873L548.856 171.481L541.42 172.972L549.541 157.144L596.899 168.376L589.152 184.293L586.033 180.298Z" fill="white"/>
<path d="M26.8524 300.736C26.4215 302.296 26.3166 305.186 26.5377 309.404L29.5924 367.692C30.0513 376.448 28.4722 383.004 24.8552 387.359C21.1238 391.977 14.7116 395.581 5.6188 398.172C7.91403 393.053 9.44887 388.711 10.2233 385.146C11.1527 380.867 11.4867 376.235 11.2255 371.25L8.03508 310.374C7.84081 306.667 7.37052 303.807 6.62421 301.796C5.8779 299.784 4.86576 298.203 3.58779 297.052L29.664 295.686C28.2172 297.428 27.28 299.111 26.8524 300.736Z" fill="white"/>
<path d="M67.82 297.82L64.9247 293.934L88.3166 292.708L110.408 354.709L113.782 362.222L115.239 364.357L115.44 368.192L89.8434 369.533L92.3924 364.978L92.7918 361.592L92.6813 359.483L88.2742 346.928L68.3335 347.973L65.2072 361.692L65.1059 363.428L66.0688 367.126L68.7523 370.639L49.3869 371.654L52.5417 365.816L67.5605 307.543L67.6919 306.382L68.571 301.145L67.82 297.82ZM71.0253 336.97L84.6386 336.256L76.591 312.933L71.0253 336.97Z" fill="white"/>
<path d="M158.471 288.215L175.275 286.449L160.771 365.197C154.135 363.899 149.144 361.721 145.798 358.662C142.873 355.945 139.997 351.228 137.167 344.51L117.753 298.48L114.362 292.851L135.367 290.644L138.586 300.151L155.634 342.956L163.012 296.522L161.722 292.507L158.471 288.215Z" fill="white"/>
<path d="M191.793 288.637L188.57 285.018L211.766 281.758L239.177 341.598L243.193 348.789L244.831 350.788L245.366 354.591L219.983 358.158L222.126 353.398L222.228 349.99L221.934 347.899L216.45 335.776L196.676 338.555L194.757 352.494L194.808 354.232L196.089 357.832L199.069 361.097L179.865 363.796L182.5 357.706L192.382 298.345L192.412 297.178L192.831 291.884L191.793 288.637ZM198.399 327.358L211.898 325.461L201.848 302.928L198.399 327.358Z" fill="white"/>
<path d="M278.31 287.98L272.55 287.135C270.255 287.335 268.279 288.247 266.622 289.87C265.029 291.487 264.414 293.275 264.778 295.235C265.029 298.104 268.982 301.42 276.635 305.183L283.984 308.78C287.605 310.519 290.491 313.029 292.641 316.31C294.792 319.592 296.059 323.432 296.444 327.831C297.074 335.035 295.185 340.983 290.777 345.673C286.608 350.149 280.857 352.708 273.525 353.35L264.356 353.188L254.063 351.198L249.439 335.798C253.233 338.036 257.106 339.721 261.06 340.852C264.748 341.879 267.835 342.283 270.321 342.066C272.999 341.832 275.23 340.898 277.014 339.264C278.863 337.624 279.675 335.53 279.452 332.979C279.14 329.409 275.304 325.954 267.945 322.615L262.738 320.372C258.387 318.376 254.796 315.51 251.963 311.775C249.281 308.283 247.75 304.37 247.371 300.034C246.785 293.34 248.585 287.85 252.772 283.565C256.725 279.557 262.081 277.257 268.84 276.666L276.749 276.745L285.207 278.703L286.278 290.945L278.31 287.98Z" fill="white"/>
<path d="M346.219 285.932L339.187 284.614C333.236 284.718 328.835 287.419 325.983 292.718C323.689 296.983 322.598 302.347 322.711 308.81C322.938 321.8 326.642 330.504 333.824 334.924C336.736 336.729 340.208 337.597 344.239 337.526L353.429 335.926C356.481 334.784 359.908 333.092 363.71 330.849L359.746 345.801L350.193 348.56L341.377 349.578C330.24 349.58 321.315 346.184 314.603 339.388C307.695 332.339 304.141 323.088 303.941 311.634C303.747 300.499 306.947 291.29 313.541 284.006C320.197 276.656 327.813 272.907 336.388 272.757C337.156 272.744 337.956 272.762 338.789 272.811L345.518 273.27L352.941 274.965L354.443 289.533L346.219 285.932Z" fill="white"/>
<path d="M406.479 298.599C406.604 295.017 405.869 292.238 404.273 290.261C402.679 288.22 400.539 287.153 397.853 287.059L396.893 287.026L396.311 287.197L395.406 313.102C398.827 312.324 401.545 310.594 403.56 307.911C405.374 305.477 406.347 302.373 406.479 298.599ZM399.982 275.606C408.424 275.901 414.729 277.818 418.896 281.358C423.066 284.834 425.028 290.057 424.785 297.029C424.64 301.187 423.528 304.606 421.449 307.287C419.752 310.045 416.716 312.629 412.341 315.038L426.749 345.319L431.702 352.024L417.929 353.08C414.603 352.964 411.761 351.808 409.405 349.612C406.863 347.218 404.683 343.62 402.865 338.818L395.195 319.146L394.525 338.334C394.38 342.492 394.537 345.315 394.998 346.804L397.897 351.804L371.705 350.889C373.294 349.408 374.406 347.814 375.042 346.107C375.605 344.654 375.959 341.848 376.104 337.691L377.833 288.185C377.956 284.667 377.912 282.264 377.701 280.976C377.276 278.464 376.164 276.376 374.365 274.712L399.982 275.606Z" fill="white"/>
<path d="M464.803 292.175L461.334 341.782C461.066 345.612 461.185 348.508 461.689 350.467C462.033 351.967 462.845 353.66 464.125 355.546L437.981 353.718C439.51 352.028 440.582 350.467 441.195 349.034C441.968 347.164 442.488 344.313 442.756 340.482L446.224 290.876C446.675 284.427 445.713 279.837 443.338 277.105L469.482 278.933C468.112 280.184 467.04 281.745 466.268 283.616C465.559 285.491 465.071 288.344 464.803 292.175Z" fill="white"/>
<path d="M526.216 290.202C529.653 294.231 531.038 299.429 530.369 305.794C529.646 312.668 527.027 317.991 522.512 321.764C517.914 325.721 512.165 327.144 505.268 326.033L501.373 325.43C504.304 323.872 506.815 321.723 508.905 318.982C510.639 315.947 511.711 312.488 512.119 308.605C512.567 304.341 512.024 300.937 510.489 298.395C508.961 295.789 506.574 294.315 503.328 293.974L497.929 345.339L497.981 354.032L500.238 359.193L474.174 356.453C475.761 354.818 476.886 353.295 477.55 351.885C478.494 350.247 479.177 347.423 479.598 343.413L484.796 293.957C485.231 289.82 485.189 286.855 484.669 285.063C484.22 283.214 483.397 281.551 482.201 280.074L511.512 283.154C517.877 283.823 522.778 286.173 526.216 290.202Z" fill="white"/>
<path d="M580.948 306.384L575.5 304.455L573.191 304.325L571.453 304.274L564.506 353.709C563.972 357.511 563.888 360.408 564.254 362.398L566.425 367.647L540.472 364C542.35 362.131 543.56 360.653 544.1 359.566C544.821 358.116 545.475 355.3 546.063 351.117L553.011 301.682L549.737 300.835L543.112 301.067L535.922 303.255L542.129 286.678L590.327 293.452L584.5 310.083L580.948 306.384Z" fill="white"/>
</svg>
